<svg xmlns="http://www.w3.org/2000/svg" xmlns:xlink="http://www.w3.org/1999/xlink" width="500" zoomAndPan="magnify" viewBox="0 0 375 374.999991" height="500" preserveAspectRatio="xMidYMid meet" version="1.0"><defs><g/><clipPath id="b068667db7"><path d="M 122.886719 113.902344 L 251.886719 113.902344 L 251.886719 205.398438 L 122.886719 205.398438 Z M 122.886719 113.902344 " clip-rule="nonzero"/></clipPath></defs><rect x="-37.5" width="450" fill="#ffffff" y="-37.499999" height="449.999989" fill-opacity="1"/><g clip-path="url(#b068667db7)"><path fill="#4ce1e6" d="M 230.953125 205.019531 L 143.902344 205.019531 C 132.355469 204.945312 122.929688 195.992188 122.886719 185.058594 L 122.886719 133.976562 C 122.886719 130.25 123.972656 126.613281 126.027344 123.460938 L 126.089844 123.367188 C 126.164062 123.25 126.230469 123.160156 126.292969 123.066406 C 130.214844 117.351562 136.839844 113.941406 144.03125 113.941406 L 231.164062 113.941406 L 231.199219 113.945312 C 242.71875 114.078125 252.089844 123.046875 252.097656 133.964844 L 252.097656 184.988281 C 252.097656 188.6875 251.027344 192.300781 249 195.441406 L 248.875 195.632812 C 248.820312 195.714844 248.753906 195.8125 248.6875 195.90625 C 244.78125 201.613281 238.152344 205.019531 230.953125 205.019531 Z M 129.957031 125.644531 C 129.917969 125.703125 129.878906 125.757812 129.839844 125.816406 L 129.785156 125.898438 C 128.203125 128.332031 127.371094 131.121094 127.371094 133.976562 L 127.371094 185.050781 C 127.402344 193.527344 134.828125 200.476562 143.925781 200.542969 L 230.953125 200.542969 C 236.679688 200.542969 241.929688 197.855469 244.996094 193.363281 L 245.023438 193.324219 C 245.0625 193.269531 245.101562 193.214844 245.132812 193.167969 L 245.214844 193.039062 C 246.789062 190.617188 247.617188 187.832031 247.617188 184.988281 L 247.617188 133.964844 C 247.609375 125.480469 240.203125 118.507812 231.105469 118.425781 L 144.03125 118.425781 C 138.3125 118.425781 133.058594 121.109375 129.976562 125.617188 C 129.976562 125.621094 129.972656 125.625 129.96875 125.628906 Z M 149.851562 175.8125 L 153.875 182.308594 L 166.507812 165.667969 C 167.210938 164.734375 168.335938 164.144531 169.578125 164.058594 C 170.8125 163.976562 172.019531 164.394531 172.875 165.226562 L 180.097656 172.203125 L 187.867188 166.6875 L 194.398438 158.289062 C 195.03125 157.476562 195.992188 156.917969 197.066406 156.753906 L 212.890625 154.3125 L 218 140.875 C 218.574219 139.351562 220.136719 138.339844 221.886719 138.339844 L 234.941406 138.339844 L 243.992188 130.019531 C 242.183594 124.984375 237.042969 121.351562 230.957031 121.351562 L 144.042969 121.351562 C 136.449219 121.351562 130.296875 127 130.296875 133.96875 L 130.296875 173.890625 L 146.273438 173.890625 C 147.746094 173.890625 149.117188 174.621094 149.851562 175.8125 Z M 239.558594 144.800781 C 238.789062 145.511719 237.742188 145.910156 236.640625 145.910156 L 224.808594 145.910156 L 219.871094 158.921875 C 219.371094 160.226562 218.136719 161.179688 216.65625 161.40625 L 200.117188 163.96875 L 194.214844 171.550781 C 193.984375 171.851562 193.707031 172.121094 193.386719 172.34375 L 182.191406 180.289062 C 180.523438 181.476562 178.140625 181.3125 176.6875 179.902344 L 170.382812 173.808594 L 156.902344 191.566406 C 156.125 192.585938 154.863281 193.183594 153.515625 193.183594 C 153.457031 193.183594 153.390625 193.183594 153.332031 193.183594 C 151.917969 193.121094 150.632812 192.398438 149.9375 191.273438 L 143.875 181.46875 L 130.300781 181.46875 L 130.300781 184.992188 C 130.300781 191.96875 136.449219 197.617188 144.042969 197.617188 L 230.957031 197.617188 C 238.542969 197.617188 244.691406 191.96875 244.691406 184.992188 L 244.691406 140.085938 Z M 239.558594 144.800781 " fill-opacity="1" fill-rule="nonzero"/></g><g fill="#000000" fill-opacity="1"><g transform="translate(131.118073, 242.810581)"><g><path d="M 10.203125 -19.496094 L 1.917969 -19.496094 L 1.917969 0 L 6.207031 0 L 6.207031 -7.894531 L 10.203125 -7.894531 C 13.484375 -7.894531 16.019531 -10.332031 16.019531 -13.613281 C 16.019531 -16.863281 13.484375 -19.496094 10.203125 -19.496094 Z M 9.519531 -11.4375 L 6.207031 -11.4375 L 6.207031 -15.726562 L 9.519531 -15.726562 C 10.886719 -15.726562 11.925781 -14.851562 11.925781 -13.582031 C 11.925781 -12.28125 10.886719 -11.4375 9.519531 -11.4375 Z M 9.519531 -11.4375 "/></g></g></g><g fill="#000000" fill-opacity="1"><g transform="translate(146.745754, 242.810581)"><g><path d="M 10.59375 -12.996094 L 7.410156 -4.386719 L 4.160156 -12.996094 L -0.164062 -12.996094 L 5.265625 0.292969 L 2.210938 7.796875 L 6.5625 7.796875 L 14.882812 -12.996094 Z M 10.59375 -12.996094 "/></g></g></g><g fill="#000000" fill-opacity="1"><g transform="translate(160.976353, 242.810581)"><g><path d="M 7.929688 0.261719 C 11.566406 0.261719 14.65625 -1.882812 14.65625 -5.523438 C 14.65625 -12.738281 5.6875 -10.949219 5.6875 -14.328125 C 5.6875 -15.433594 6.53125 -15.953125 7.570312 -15.953125 C 8.675781 -15.953125 9.78125 -15.335938 10.753906 -14.265625 L 13.613281 -16.996094 C 12.183594 -18.652344 10.007812 -19.757812 7.605469 -19.757812 C 4.515625 -19.757812 1.363281 -17.902344 1.363281 -14.003906 C 1.363281 -7.375 10.367188 -8.96875 10.367188 -5.554688 C 10.367188 -4.484375 9.457031 -3.769531 7.960938 -3.769531 C 6.171875 -3.769531 4.777344 -4.777344 4.0625 -6.304688 L 0.519531 -4.09375 C 1.789062 -1.65625 4.515625 0.261719 7.929688 0.261719 Z M 7.929688 0.261719 "/></g></g></g><g fill="#000000" fill-opacity="1"><g transform="translate(175.856759, 242.810581)"><g><path d="M 9.75 -9.78125 L 9.75 -12.996094 L 6.660156 -12.996094 L 6.660156 -18 L 2.535156 -18 L 2.535156 -12.996094 L 0.359375 -12.996094 L 0.359375 -9.78125 L 2.535156 -9.78125 L 2.535156 -4.648438 C 2.535156 -1.882812 4.875 0.261719 7.636719 0.261719 C 8.511719 0.261719 9.390625 0.0664062 9.714844 -0.164062 L 9.714844 -3.378906 L 8.15625 -3.378906 C 7.277344 -3.378906 6.660156 -4.0625 6.660156 -5.132812 L 6.660156 -9.78125 Z M 9.75 -9.78125 "/></g></g></g><g fill="#000000" fill-opacity="1"><g transform="translate(185.733659, 242.810581)"><g><path d="M 8.253906 0.261719 C 12.609375 0.261719 15.46875 -2.597656 15.46875 -6.5 C 15.46875 -10.398438 12.609375 -13.257812 8.253906 -13.257812 C 3.898438 -13.257812 1.007812 -10.398438 1.007812 -6.5 C 1.007812 -2.597656 3.898438 0.261719 8.253906 0.261719 Z M 8.253906 -3.410156 C 6.464844 -3.445312 5.167969 -4.742188 5.167969 -6.5 C 5.167969 -8.253906 6.464844 -9.554688 8.253906 -9.585938 C 10.007812 -9.554688 11.339844 -8.253906 11.339844 -6.5 C 11.339844 -4.742188 10.007812 -3.445312 8.253906 -3.410156 Z M 8.253906 -3.410156 "/></g></g></g><g fill="#000000" fill-opacity="1"><g transform="translate(201.718742, 242.810581)"><g><path d="M 8.253906 0.261719 C 12.152344 0.261719 14.816406 -2.015625 15.371094 -5.265625 L 11.082031 -5.265625 C 10.65625 -4.160156 9.585938 -3.445312 8.253906 -3.410156 C 6.464844 -3.445312 5.167969 -4.742188 5.167969 -6.5 C 5.167969 -8.253906 6.464844 -9.554688 8.253906 -9.585938 C 9.585938 -9.554688 10.65625 -8.839844 11.082031 -7.734375 L 15.371094 -7.734375 C 14.816406 -10.984375 12.152344 -13.257812 8.253906 -13.257812 C 3.898438 -13.257812 1.007812 -10.398438 1.007812 -6.5 C 1.007812 -2.597656 3.898438 0.261719 8.253906 0.261719 Z M 8.253906 0.261719 "/></g></g></g><g fill="#000000" fill-opacity="1"><g transform="translate(217.313937, 242.810581)"><g><path d="M 16.214844 0 L 10.039062 -7.117188 L 15.726562 -12.996094 L 10.753906 -12.996094 L 6.238281 -8.320312 L 6.238281 -22.257812 L 2.113281 -22.257812 L 2.113281 0 L 6.238281 0 L 6.238281 -5.980469 L 10.820312 0 Z M 16.214844 0 "/></g></g></g><g fill="#000000" fill-opacity="1"><g transform="translate(232.421785, 242.810581)"><g><path d="M 6.109375 0.261719 C 9.035156 0.261719 10.820312 -1.527344 10.820312 -3.964844 C 10.820312 -6.5625 8.675781 -7.605469 6.824219 -8.320312 C 5.882812 -8.707031 5.425781 -8.902344 5.425781 -9.390625 C 5.425781 -9.8125 5.75 -10.136719 6.464844 -10.136719 C 7.3125 -10.136719 8.089844 -9.683594 8.480469 -9.195312 L 10.558594 -11.535156 C 9.585938 -12.511719 7.992188 -13.257812 6.171875 -13.257812 C 3.21875 -13.257812 1.332031 -11.308594 1.332031 -9.097656 C 1.332031 -6.5 3.933594 -5.621094 5.425781 -5.070312 C 6.597656 -4.613281 6.984375 -4.289062 6.984375 -3.835938 C 6.984375 -3.3125 6.53125 -3.023438 5.847656 -3.023438 C 5.167969 -3.023438 4.257812 -3.28125 3.671875 -4.386719 L 0.617188 -2.859375 C 1.398438 -0.84375 3.800781 0.261719 6.109375 0.261719 Z M 6.109375 0.261719 "/></g></g></g></svg>